<?xml version="1.0" encoding="utf-8"?>
<svg xmlns="http://www.w3.org/2000/svg" xmlns:xlink="http://www.w3.org/1999/xlink" style="margin: auto; background: rgba(0, 0, 0, 0) none repeat scroll 0% 0%; display: block; shape-rendering: auto;" width="800px" height="800px" viewBox="0 0 100 100" preserveAspectRatio="xMidYMid">
<g transform="rotate(0 50 50)">
  <rect x="48.5" y="0.5" rx="0" ry="0" width="3" height="25" fill="#25960e">
    <animate attributeName="opacity" values="1;0" keyTimes="0;1" dur="0.5555555555555556s" begin="-0.5092592592592592s" repeatCount="indefinite"></animate>
  </rect>
</g><g transform="rotate(30 50 50)">
  <rect x="48.5" y="0.5" rx="0" ry="0" width="3" height="25" fill="#25960e">
    <animate attributeName="opacity" values="1;0" keyTimes="0;1" dur="0.5555555555555556s" begin="-0.4629629629629629s" repeatCount="indefinite"></animate>
  </rect>
</g><g transform="rotate(60 50 50)">
  <rect x="48.5" y="0.5" rx="0" ry="0" width="3" height="25" fill="#25960e">
    <animate attributeName="opacity" values="1;0" keyTimes="0;1" dur="0.5555555555555556s" begin="-0.41666666666666663s" repeatCount="indefinite"></animate>
  </rect>
</g><g transform="rotate(90 50 50)">
  <rect x="48.5" y="0.5" rx="0" ry="0" width="3" height="25" fill="#25960e">
    <animate attributeName="opacity" values="1;0" keyTimes="0;1" dur="0.5555555555555556s" begin="-0.37037037037037035s" repeatCount="indefinite"></animate>
  </rect>
</g><g transform="rotate(120 50 50)">
  <rect x="48.5" y="0.5" rx="0" ry="0" width="3" height="25" fill="#25960e">
    <animate attributeName="opacity" values="1;0" keyTimes="0;1" dur="0.5555555555555556s" begin="-0.32407407407407407s" repeatCount="indefinite"></animate>
  </rect>
</g><g transform="rotate(150 50 50)">
  <rect x="48.5" y="0.5" rx="0" ry="0" width="3" height="25" fill="#25960e">
    <animate attributeName="opacity" values="1;0" keyTimes="0;1" dur="0.5555555555555556s" begin="-0.27777777777777773s" repeatCount="indefinite"></animate>
  </rect>
</g><g transform="rotate(180 50 50)">
  <rect x="48.5" y="0.5" rx="0" ry="0" width="3" height="25" fill="#25960e">
    <animate attributeName="opacity" values="1;0" keyTimes="0;1" dur="0.5555555555555556s" begin="-0.23148148148148145s" repeatCount="indefinite"></animate>
  </rect>
</g><g transform="rotate(210 50 50)">
  <rect x="48.5" y="0.5" rx="0" ry="0" width="3" height="25" fill="#25960e">
    <animate attributeName="opacity" values="1;0" keyTimes="0;1" dur="0.5555555555555556s" begin="-0.18518518518518517s" repeatCount="indefinite"></animate>
  </rect>
</g><g transform="rotate(240 50 50)">
  <rect x="48.5" y="0.5" rx="0" ry="0" width="3" height="25" fill="#25960e">
    <animate attributeName="opacity" values="1;0" keyTimes="0;1" dur="0.5555555555555556s" begin="-0.13888888888888887s" repeatCount="indefinite"></animate>
  </rect>
</g><g transform="rotate(270 50 50)">
  <rect x="48.5" y="0.5" rx="0" ry="0" width="3" height="25" fill="#25960e">
    <animate attributeName="opacity" values="1;0" keyTimes="0;1" dur="0.5555555555555556s" begin="-0.09259259259259259s" repeatCount="indefinite"></animate>
  </rect>
</g><g transform="rotate(300 50 50)">
  <rect x="48.5" y="0.5" rx="0" ry="0" width="3" height="25" fill="#25960e">
    <animate attributeName="opacity" values="1;0" keyTimes="0;1" dur="0.5555555555555556s" begin="-0.046296296296296294s" repeatCount="indefinite"></animate>
  </rect>
</g><g transform="rotate(330 50 50)">
  <rect x="48.5" y="0.5" rx="0" ry="0" width="3" height="25" fill="#25960e">
    <animate attributeName="opacity" values="1;0" keyTimes="0;1" dur="0.5555555555555556s" begin="0s" repeatCount="indefinite"></animate>
  </rect>
</g>
<!-- [ldio] generated by https://loading.io/ --></svg>